{"title":"Pranayathil Uzhappunnathu Enganae (2014) - DVDRip - 1CD - X264 -","uid":10242619,"size":733235963,"categoryP":"video","categoryS":"movies_dvdr","magnet":"?xt=urn:btih:69d74631e80e1dc186752352fbb84504cc60ea7f&amp;dn=Pranayathil+Uzhappunnathu+Enganae+%282014%29+-+DVDRip+-+1CD+-+X264+-&amp;tr=udp%3A%2F%2Ftracker.openbittorrent.com%3A80&amp;tr=udp%3A%2F%2Fopen.demonii.com%3A1337&amp;tr=udp%3A%2F%2Ftracker.coppersurfer.tk%3A6969&amp;tr=udp%3A%2F%2Fexodus.desync.com%3A6969","seeders":0,"leechers":0,"uploader":"proxypirate","files":10,"time":1401254311,"description":"Duration                                 : 2h 0mn\nBit rate                                 : 696 Kbps\nMaximum bit rate                         : 3 025 Kbps\nWidth                                    : 608 pixels\nHeight                                   : 256 pixels\nDisplay aspect ratio                     : 2.40:1\nFrame rate mode                          : Constant\nFrame rate                               : 25.000 fps\nColor space                              : YUV\nChroma subsampling                       : 4:2:0\nBit depth                                : 8 bits\nScan type                                : Progressive\nBits/(Pixel*Frame)                       : 0.179\nStream size                              : 599 MiB (86%)\nTitle                                    : Pranayathil Uzhappunnathu Enganae\nWriting library                          : x264 core 133 r2334 a3ac64b\nEncoding settings                        : cabac=1 / ref=3 / deblock=1:0:0 / analyse=0x3:0x113 / me=hex / subme=7 / psy=1 / psy_rd=1.00:0.15 / mixed_ref=1 / me_range=16 / chroma_me=1 / trellis=1 / 8x8dct=1 / cqm=0 / deadzone=21,11 / fast_pskip=1 / chroma_qp_offset=-3 / threads=3 / lookahead_threads=1 / sliced_threads=0 / nr=0 / decimate=1 / interlaced=0 / bluray_compat=0 / constrained_intra=0 / bframes=3 / b_pyramid=0 / b_adapt=1 / b_bias=0 / direct=1 / weightb=1 / open_gop=0 / weightp=2 / keyint=250 / keyint_min=25 / scenecut=40 / intra_refresh=0 / rc_lookahead=40 / rc=2pass / mbtree=1 / bitrate=696 / ratetol=1.0 / qcomp=0.60 / qpmin=10 / qpmax=51 / qpstep=4 / cplxblur=20.0 / qblur=0.5 / vbv_maxrate=62500 / vbv_bufsize=78125 / nal_hrd=none / ip_ratio=1.40 / aq=1:1.00\nEncoded date                             : UTC 2013-10-31 07:56:09\nTagged date                              : UTC 2013-10-31 08:50:10\n\nAudio\nID                                       : 2\nFormat                                   : AAC\nFormat/Info                              : Advanced Audio Codec\nFormat profile                           : HE-AAC / LC\nCodec ID                                 : 40\nDuration                                 : 2h 0mn\nBit rate mode                            : Variable\nBit rate                                 : 112 Kbps\nMaximum bit rate                         : 143 Kbps\nChannel(s)                               : 2 channels\nChannel positions                        : Front: L R\nSampling rate                            : 44.1 KHz / 22.05 KHz\nCompression mode                         : Lossy\nStream size                              : 96.1 MiB (14%)\nTitle                                    : Malayalam AAC [Team TMR]\nEncoded date                             : UTC 2013-10-31 03:56:01\nTagged date                              : UTC 2013-10-31 08:50:10\n\n\n\nscreen shots \n\n1.http://bayimg.com/hAOBMAafC\n\n2.http://bayimg.com/iAobfaafC\n\n3.http://bayimg.com/iaOBhaAfC\n\n4.http://bayimg.com/iaOBIaAfc\n","torrent":{"xt":"urn:btih:69d74631e80e1dc186752352fbb84504cc60ea7f","amp;dn":"Pranayathil+Uzhappunnathu+Enganae+%282014%29+-+DVDRip+-+1CD+-+X264+-","amp;tr":["udp%3A%2F%2Ftracker.openbittorrent.com%3A80","udp%3A%2F%2Fopen.demonii.com%3A1337","udp%3A%2F%2Ftracker.coppersurfer.tk%3A6969","udp%3A%2F%2Fexodus.desync.com%3A6969"],"infoHash":"69d74631e80e1dc186752352fbb84504cc60ea7f","infoHashBuffer":{"type":"Buffer","data":[105,215,70,49,232,14,29,193,134,117,35,82,251,184,69,4,204,96,234,127]},"announce":[],"urlList":[]}}